<svg width="320" height="450" viewBox="0 0 320 450" fill="none" xmlns="http://www.w3.org/2000/svg">
  <rect width="320" height="450" rx="24" fill="#F3F4F6"/>
  <rect x="24" y="32" width="56" height="56" rx="28" fill="#E0E7FF"/>
  <rect x="92" y="40" width="120" height="18" rx="6" fill="#CBD5E1"/>
  <rect x="92" y="66" width="80" height="12" rx="6" fill="#E5E7EB"/>
  <rect x="24" y="110" width="272" height="16" rx="6" fill="#A7F3D0"/>
  <rect x="24" y="136" width="200" height="10" rx="5" fill="#E5E7EB"/>
  <rect x="24" y="154" width="180" height="10" rx="5" fill="#E5E7EB"/>
  <rect x="24" y="172" width="220" height="10" rx="5" fill="#E5E7EB"/>
  <rect x="24" y="200" width="272" height="16" rx="6" fill="#FDE68A"/>
  <rect x="24" y="226" width="180" height="10" rx="5" fill="#E5E7EB"/>
  <rect x="24" y="244" width="120" height="10" rx="5" fill="#E5E7EB"/>
  <rect x="24" y="272" width="272" height="16" rx="6" fill="#FCA5A5"/>
  <rect x="24" y="298" width="200" height="10" rx="5" fill="#E5E7EB"/>
  <rect x="24" y="316" width="180" height="10" rx="5" fill="#E5E7EB"/>
  <rect x="24" y="334" width="220" height="10" rx="5" fill="#E5E7EB"/>
  <rect x="24" y="370" width="80" height="10" rx="5" fill="#E5E7EB"/>
  <rect x="24" y="388" width="120" height="10" rx="5" fill="#E5E7EB"/>
  <rect x="24" y="406" width="60" height="10" rx="5" fill="#E5E7EB"/>
</svg> 